#format: frame checksums
#version: 2
#hash: MD5
#tb 0: 1001/30000
#media_type 0: video
#codec_id 0: rawvideo
#dimensions 0: 224x196
#sar 0: 1/1
#stream#, dts,        pts, duration,     size, hash
0,          0,          0,        1,    65856, 3ffc096f1b42b4d319d4a9efbefc7625
0,          1,          1,        1,    65856, 78b3655d5cad30fa6b2c2d8fd29463de
0,          2,          2,        1,    65856, ab197553d9599b2a03aff62d1d694848
0,          3,          3,        1,    65856, be368d1f3d3fcc710565b5433940f0df
0,          4,          4,        1,    65856, 374c5db60ea9c110b871bb45be0efff1
0,          5,          5,        1,    65856, ec50085400d626de5833bc0a94d9941f
0,          6,          6,        1,    65856, d4ae69937e2a8d9bf2023d4215749635
0,          7,          7,        1,    65856, 9b0b81eb6d62b8014e0639932fe35bc0
0,          8,          8,        1,    65856, cd02d0cc268e6b6df0b2dbd3f3b137e6
0,          9,          9,        1,    65856, 5322ba1085c114f93534e1761a0d8aa1
